<svg width="213" height="213" viewBox="0 0 213 213" fill="none" xmlns="http://www.w3.org/2000/svg">
<path fill-rule="evenodd" clip-rule="evenodd" d="M89.0528 0.0926524C81.6618 0.360891 70.1838 0.969009 67.5206 1.23358C62.8905 1.69375 61.3062 2.68673 53.1581 10.2344C43.8132 18.891 40.5694 22.0022 32.2195 30.3176C22.6759 39.8223 15.9981 46.8181 8.77764 54.8763C1.38666 63.1247 1.61267 62.6545 0.970551 71.1215C-0.316339 88.0908 -0.324981 124.402 0.953601 142.083C1.60403 151.078 1.09086 150.134 11.7762 161.988C23.0451 174.49 40.8871 192.242 54.6537 204.649C60.6398 210.043 61.8722 210.909 64.3466 211.458C71.1333 212.965 119.097 213.557 137.909 212.367C143.028 212.043 147.864 211.634 148.657 211.458C151.57 210.812 152.079 210.425 162.119 201.22C174.207 190.138 190.552 173.744 200.893 162.328C211.96 150.112 211.398 151.14 212.05 141.918C213.32 123.914 213.316 88.8502 212.042 71.468C211.614 65.6434 211.461 64.6918 210.684 63.0457C209.88 61.3413 205.201 55.7649 199.084 49.2216C197.976 48.036 195.589 45.4869 193.779 43.5569C180.862 29.7791 154.092 4.29383 150.731 2.57477C148.624 1.49682 147.047 1.26324 138.242 0.724096C130.211 0.232603 96.9599 -0.194246 89.0528 0.0926524ZM137.245 8.87887C143.683 9.29606 146.16 9.80022 148.148 11.0994C149.68 12.1001 157.319 18.9203 164.313 25.5326C179.624 40.0059 200.913 62.6195 202.587 66.1869C203.487 68.1059 203.785 70.2861 204.226 78.2013C205.148 94.7578 204.968 125.682 203.86 140.846C203.393 147.248 203.168 147.655 195.209 156.507C180.416 172.959 152.208 200.264 147.271 202.911C145.085 204.083 142.924 204.334 129.411 204.984C111.625 205.841 83.2937 205.462 70.2243 204.194C66.4484 203.828 65.1805 203.171 60.5899 199.204C45.023 185.753 12.6107 152.61 10.1061 147.582C9.16949 145.701 8.90161 143.353 8.29273 131.682C7.63234 119.03 7.63134 94.239 8.29007 81.7931C8.91723 69.9453 9.21835 67.4925 10.2616 65.7347C12.7909 61.4739 34.8737 38.1935 48.6922 25.2201C54.9109 19.3818 62.3415 12.7005 64.0325 11.4263C66.6412 9.46134 67.2411 9.37903 85.8954 8.42603C90.9951 8.16546 131.789 8.52533 137.245 8.87887ZM85.1618 21.3608C81.0243 21.5674 77.7985 21.8719 77.5977 22.0742C76.7911 22.8882 67.3229 44.306 62.7519 55.657C59.0368 64.8827 52.1833 82.958 51.015 86.6103C50.796 87.2951 50.5049 87.9246 50.3679 88.0095C50.231 88.0945 49.5404 87.1592 48.8334 85.9316C38.3156 67.6691 33.4881 59.7868 32.9294 59.9641C32.7217 60.0301 30.2872 62.5969 27.5197 65.6678L22.4874 71.2518L22.2903 73.3104C21.3634 83.0053 21.2135 126.497 22.0713 136.847C22.392 140.716 22.5572 141.506 23.2502 142.493C24.2027 143.85 34.3715 155.084 36.387 157.007L37.7842 158.34L37.5705 155.507C36.5571 142.084 35.5315 96.5242 36.2427 96.5308C36.4062 96.5325 36.9244 97.2449 37.394 98.1136C42.7613 108.045 53.4828 126.484 53.6826 126.126C53.8178 125.883 55.578 121.087 57.5941 115.467C64.9601 94.9357 77.0364 63.8731 77.6525 63.8731C77.7988 63.8731 77.9188 92.5662 77.9188 127.636V191.399L80.4945 191.608C81.9111 191.723 86.7718 191.918 91.2962 192.042L99.522 192.266V106.577V20.8883L95.9492 20.9443C93.984 20.9749 89.1299 21.1622 85.1618 21.3608ZM113.813 106.691V192.161L119.879 192.152C125.515 192.144 132.722 191.819 138.79 191.299L141.333 191.081L146.933 186.05C154.587 179.174 157.843 176.042 170.002 163.855C181.102 152.728 189.747 143.352 190.441 141.684C190.852 140.696 191.294 131.701 191.779 114.438L191.992 106.858H177.165H162.338V114.022V121.186H169.464C173.383 121.186 176.653 121.298 176.73 121.436C176.903 121.744 176.354 134.396 176.123 135.421C175.928 136.289 166.839 146.002 156.692 156.186C149.244 163.661 135.91 176.167 135.386 176.167C135.206 176.167 135.084 148.094 135.084 106.691C135.084 68.4275 135.212 37.2158 135.369 37.2158C135.973 37.2158 149.501 49.9333 158.372 58.8419C164.763 65.2586 175.004 76.1471 175.866 77.4403C176.188 77.9234 176.412 79.3623 176.513 81.6055C176.599 83.4901 176.737 85.3695 176.822 85.782L176.974 86.5317H184.253H191.532L191.374 83.2829C191.002 75.6399 190.614 72.1268 190.046 71.2481C189.077 69.751 182.807 62.7911 175.793 55.4271C165.901 45.0401 145.551 25.51 142.365 23.3464C141.372 22.6717 140.533 22.4827 137.38 22.2242C134.024 21.9486 117.709 21.2215 114.886 21.2215H113.813V106.691Z" fill="#A4A4A4"/>
</svg>
